<svg width="144" height="154" viewBox="0 0 144 154" fill="none" xmlns="http://www.w3.org/2000/svg">
<g clip-path="url(#clip0_523_10656)">
<path d="M74.3005 41.9349C74.0279 40.8376 73.4827 39.8697 72.4974 39.2563C71.2109 38.4513 69.6614 38.0249 68.1692 37.8045C66.3853 37.5409 64.5679 37.469 62.7696 37.5984C61 37.723 59.6083 37.9722 57.8483 37.6655C54.9787 37.1672 51.4444 37.6942 49.1822 39.6492C48.6083 40.1476 48.6274 40.1763 47.9531 40.162C47.3887 40.1524 46.834 40.0997 46.2696 40.114C45.3561 40.1332 44.3327 40.1045 43.4383 40.3201C41.7118 40.737 40.1479 41.633 38.8087 42.7926C35.3031 45.8305 33.5144 50.4449 31.1757 54.3453C28.3205 59.1034 25.2835 63.7992 22.1653 68.3753C19.4535 72.3572 16.0053 75.8263 12.0357 78.5528C10.5579 79.5686 9.00831 80.4838 7.40613 81.2888L5.56483 82.2136C5.56483 82.2136 5.5457 82.2232 5.53613 82.2328C5.52657 82.2376 5.517 82.2424 5.50744 82.2472C5.49787 82.252 5.48831 82.2615 5.47874 82.2663C5.46918 82.2711 5.45961 82.2759 5.45483 82.2855C5.44526 82.2903 5.4357 82.2999 5.43092 82.3095C5.42135 82.3142 5.41657 82.3238 5.407 82.3286C5.39744 82.3382 5.39265 82.343 5.38309 82.3526C5.37831 82.3622 5.36874 82.367 5.36396 82.3765C5.35439 82.3861 5.34961 82.3957 5.34483 82.4005C5.34005 82.4101 5.33048 82.4149 5.3257 82.4245C5.32092 82.434 5.31135 82.4436 5.30657 82.4532C5.30179 82.4628 5.297 82.4676 5.29222 82.4772C5.28744 82.4867 5.28265 82.4963 5.27787 82.5059C5.27787 82.5155 5.26831 82.5251 5.26352 82.5299C5.26352 82.5395 5.25396 82.549 5.25396 82.5586C5.25396 82.5682 5.24439 82.5778 5.24439 82.5874C5.24439 82.597 5.23961 82.6065 5.23483 82.6161C5.23483 82.6257 5.23005 82.6353 5.22526 82.6449C5.22526 82.6545 5.22526 82.664 5.22048 82.6736C5.22048 82.6832 5.22048 82.6928 5.2157 82.7024C5.2157 82.712 5.2157 82.7215 5.2157 82.7311C5.2157 82.7407 5.2157 82.7503 5.2157 82.7647C5.2157 82.7742 5.2157 82.7838 5.2157 82.7982C5.2157 82.8078 5.2157 82.8174 5.2157 82.8317C5.2157 82.8413 5.2157 82.8557 5.2157 82.8653C5.2157 82.8749 5.2157 82.8845 5.2157 82.894C5.2157 82.9036 5.2157 82.918 5.22048 82.9276C5.22048 82.9372 5.22048 82.9467 5.22526 82.9563C5.22526 82.9659 5.23483 82.9803 5.23483 82.9899C5.23483 82.9995 5.23961 83.009 5.24439 83.0186C5.24439 83.0282 5.25396 83.0426 5.25874 83.0522C5.25874 83.0618 5.26352 83.0713 5.27309 83.0809L15.747 104.179C15.8235 104.337 15.967 104.457 16.1344 104.509C16.1966 104.528 16.2635 104.538 16.3257 104.538C16.4357 104.538 16.5457 104.509 16.6413 104.457L36.0922 93.5459C37.5079 92.7505 39.0335 92.209 40.6118 91.9407C43.6679 91.4184 49.9187 89.7988 57.3987 84.8347C67.9874 77.8053 70.1779 74.844 69.7331 68.1549C69.5944 66.0945 68.8435 64.5132 67.6766 63.7034C67.4805 62.0599 67.3274 60.3636 68.0496 58.8207C68.7001 57.4311 69.7713 56.3051 70.7135 55.112C72.4927 52.8647 73.7218 50.0855 74.2144 47.2249C74.4822 45.6867 74.7214 43.6455 74.2957 41.9349H74.3005Z" fill="#93B3EA"/>
<path d="M16.3305 105.113C16.2061 105.113 16.0866 105.094 15.967 105.061C15.6466 104.96 15.3787 104.735 15.2305 104.433L4.75657 83.3352C4.75657 83.3352 4.73744 83.2968 4.73266 83.2824C4.72309 83.2633 4.71353 83.2441 4.70875 83.2201C4.70396 83.201 4.6944 83.1866 4.68962 83.1674C4.68005 83.1483 4.67527 83.1243 4.67048 83.1052C4.6657 83.086 4.66092 83.0668 4.65614 83.0524C4.65135 83.0237 4.64657 83.0093 4.64179 82.9902C4.64179 82.9662 4.63701 82.9518 4.63222 82.9327C4.63222 82.9087 4.62744 82.8895 4.62744 82.8751C4.62744 82.8512 4.62744 82.832 4.62744 82.8129C4.62744 82.7889 4.62744 82.7697 4.62744 82.7506C4.62744 82.7314 4.62744 82.7122 4.62744 82.6931C4.62744 82.6691 4.62744 82.6499 4.63222 82.6308C4.63222 82.6116 4.63701 82.5924 4.64179 82.5733C4.64179 82.5541 4.64657 82.5349 4.65135 82.5158C4.65135 82.4966 4.66092 82.4822 4.6657 82.4631C4.67527 82.4343 4.68005 82.4199 4.68483 82.4008C4.68962 82.3864 4.69918 82.3672 4.70396 82.3481C4.71353 82.3289 4.71831 82.3097 4.72788 82.2906C4.73744 82.2714 4.74222 82.257 4.75179 82.2426C4.76135 82.2187 4.77092 82.1995 4.78527 82.1852C4.79005 82.1756 4.79962 82.1564 4.81396 82.142C4.82831 82.1229 4.83788 82.1037 4.84744 82.0893C4.85701 82.0749 4.87135 82.0558 4.88092 82.0414C4.89527 82.0222 4.90962 82.0079 4.91918 81.9935C4.93353 81.9791 4.94309 81.9647 4.95744 81.9551C4.97657 81.936 4.98614 81.9216 5.00048 81.9072C5.01483 81.8929 5.02918 81.8785 5.04353 81.8689C5.05788 81.8545 5.07222 81.8401 5.09135 81.8306C5.1057 81.8162 5.12483 81.8066 5.13918 81.7922C5.15831 81.7779 5.17266 81.7683 5.19179 81.7587C5.21092 81.7491 5.22527 81.7395 5.23962 81.7299C5.25875 81.7204 5.27788 81.7108 5.29222 81.7012L7.13831 80.7764C8.71657 79.9858 10.2518 79.0754 11.7009 78.0835C15.6322 75.381 18.9896 72.0076 21.6774 68.0593C25.0396 63.1239 27.9809 58.5431 30.6687 54.0581C31.2857 53.0279 31.8787 51.921 32.4527 50.8524C34.0835 47.8097 35.767 44.6616 38.4214 42.3664C39.9327 41.0583 41.5731 40.1814 43.2901 39.7693C44.0983 39.5729 44.9879 39.5633 45.777 39.5537C45.9348 39.5537 46.0879 39.5537 46.2409 39.5441C46.6092 39.5345 46.9727 39.5537 47.3218 39.5681C47.5274 39.5776 47.7427 39.5872 47.9483 39.592C48.0679 39.592 48.2927 39.5968 48.3501 39.5776C48.3979 39.5585 48.527 39.4483 48.6753 39.3189L48.7901 39.2183C50.9566 37.3447 54.5435 36.5158 57.9344 37.1051C59.2448 37.3351 60.3448 37.2345 61.617 37.1195C61.9661 37.086 62.3296 37.0572 62.7122 37.0285C64.5583 36.8991 66.4187 36.971 68.2409 37.2393C70.0631 37.5076 71.5935 38.0251 72.7892 38.7774C73.8127 39.4195 74.5061 40.4401 74.8457 41.8106C75.3144 43.6985 75.0274 45.8739 74.774 47.3401C74.2622 50.287 72.9757 53.1812 71.1535 55.486C70.9431 55.7543 70.7183 56.0226 70.5031 56.2814C69.7474 57.1966 69.0348 58.0639 68.5566 59.0797C67.9492 60.3783 68.0257 61.811 68.2074 63.4018C69.4174 64.3649 70.154 66.0276 70.2927 68.1312C70.5414 71.8926 69.9435 74.3029 68.15 76.7274C66.4044 79.0849 63.4774 81.4999 57.7001 85.3333C50.134 90.3597 43.797 91.9985 40.6931 92.5256C39.177 92.7843 37.7183 93.3018 36.3553 94.0637L16.9044 104.974C16.7227 105.075 16.517 105.132 16.3066 105.132L16.3305 105.113ZM5.79918 82.8272L16.2683 103.915C16.2683 103.915 16.2922 103.944 16.3114 103.949C16.3305 103.954 16.3496 103.949 16.364 103.944L35.8148 93.0335C37.2927 92.2045 38.8757 91.6439 40.5209 91.3612C43.534 90.8485 49.694 89.2529 57.0831 84.3414C62.7361 80.5895 65.5866 78.2512 67.2414 76.0135C68.8531 73.8381 69.3887 71.6435 69.1592 68.1839C69.0348 66.3439 68.3796 64.8824 67.3514 64.1685C67.2174 64.0726 67.1266 63.9241 67.1074 63.7612C66.8922 61.9595 66.7631 60.2058 67.5283 58.5622C68.064 57.4122 68.8579 56.4491 69.6279 55.5195C69.8383 55.2656 70.0535 55.002 70.2592 54.7433C71.9618 52.587 73.167 49.8797 73.6453 47.1197C74.0183 44.9779 74.047 43.3247 73.7314 42.0645C73.4635 40.9816 72.9566 40.2197 72.1818 39.7358C71.12 39.0745 69.7379 38.6097 68.0735 38.3654C66.3327 38.1066 64.5583 38.0395 62.7983 38.1641C62.43 38.1881 62.0714 38.2216 61.727 38.2551C60.4261 38.3701 59.2018 38.4804 57.7431 38.2264C54.6822 37.6945 51.4683 38.4181 49.5553 40.076L49.4405 40.1718C48.8809 40.6606 48.7183 40.742 47.934 40.7276C47.714 40.7276 47.4892 40.7133 47.2787 40.7037C46.9296 40.6893 46.6044 40.6749 46.2744 40.6797C46.1214 40.6797 45.9635 40.6845 45.8009 40.6893C45.0357 40.6989 44.2466 40.7085 43.5674 40.8714C42.0274 41.2404 40.5544 42.031 39.1818 43.2193C36.6948 45.3756 35.0592 48.4279 33.4761 51.3795C32.8974 52.4624 32.2948 53.5837 31.6635 54.6331C28.9614 59.1372 26.0105 63.7372 22.634 68.6918C19.86 72.7599 16.4022 76.2387 12.3561 79.0179C10.864 80.0433 9.2857 80.9776 7.65962 81.7922L5.78483 82.7506C5.78483 82.8033 5.78962 82.8176 5.78962 82.8176L5.79918 82.8272Z" fill="#F0F5F8"/>
<path d="M80.3361 77.9007L91.2739 71.0055L90.81 64.7044C90.6857 63.0273 91.5704 56.0986 90.3509 54.939L78.1983 50.2432L75.2283 50.9284L80.3313 77.9007H80.3361Z" fill="#005CE4"/>
<path d="M32.357 90.5887C32.1944 90.5887 32.0318 90.5216 31.917 90.3875C31.7113 90.1431 31.74 89.7789 31.9839 89.5729C35.2648 86.7697 36.7713 83.2191 37.4552 80.737C38.2013 78.0202 38.1631 75.9454 38.1631 75.9262C38.1535 75.6052 38.407 75.3416 38.7274 75.332C39.0526 75.332 39.3109 75.5812 39.3205 75.8974C39.3205 75.9885 39.3683 78.1352 38.5792 81.0054C37.8522 83.6599 36.25 87.4502 32.7348 90.4545C32.6248 90.5456 32.4909 90.5935 32.3618 90.5935L32.357 90.5887Z" fill="#F0F5F8"/>
<path d="M44.8443 77.3591L59.7708 68.4945L69.3552 59.0357L76.1943 47.7274L68.4178 46.8984C68.1117 46.8649 67.8008 46.9559 67.5617 47.1476C66.8108 47.7466 66.5621 48.9541 62.2482 48.9972C61.483 49.0068 59.4026 48.6953 58.1591 48.5036C57.6426 48.427 57.1356 48.6953 56.9156 49.1697C56.5282 49.9938 55.6052 51.1582 53.4626 51.2301C46.7669 51.4601 40.4108 49.002 40.4108 49.002L44.8491 77.3543L44.8443 77.3591Z" fill="#005CE4"/>
<path d="M59.3835 71.2783C59.3165 71.2783 59.2496 71.2687 59.1874 71.2448C58.8861 71.1346 58.7331 70.8039 58.8431 70.5021C59.7374 68.0487 60.9235 66.0746 62.277 64.7952C63.5539 63.5877 64.9648 63.0223 66.2418 63.2044C68.1692 63.4775 69.4796 65.375 69.6661 68.1541C69.6852 68.4752 69.4461 68.7483 69.1257 68.7723C68.8052 68.7962 68.5326 68.5519 68.5087 68.2308C68.3605 65.9979 67.4518 64.546 66.0744 64.3496C64.2905 64.0956 61.6983 66.0219 59.9239 70.895C59.8378 71.1298 59.6178 71.2735 59.3787 71.2735L59.3835 71.2783Z" fill="#F0F5F8"/>
<path d="M57.6378 49.5386C57.6139 49.5386 57.59 49.5386 57.5661 49.5386C57.2505 49.5003 57.0257 49.208 57.0639 48.8917C57.2648 47.2865 53.5965 43.4963 51.2722 42.054C50.5548 41.6084 48.5557 40.468 48.5365 40.4584C48.2592 40.3003 48.1635 39.9457 48.3213 39.6678C48.4791 39.3899 48.8331 39.294 49.1105 39.4521C49.1918 39.5001 51.1431 40.6117 51.8844 41.0717C53.7592 42.2313 58.5465 46.4432 58.2165 49.0403C58.1783 49.3326 57.9296 49.5482 57.6426 49.5482L57.6378 49.5386Z" fill="#F0F5F8"/>
<path d="M67.5569 47.7327C67.2413 47.7327 66.983 47.4788 66.9782 47.1625C66.94 44.9584 65.9356 40.8806 59.68 38.3363C59.3834 38.2165 59.24 37.8811 59.3595 37.584C59.4791 37.2869 59.8139 37.1431 60.1104 37.2629C66.983 40.0565 68.083 44.6517 68.1308 47.1386C68.1356 47.4596 67.8821 47.7231 67.5617 47.7279H67.5521L67.5569 47.7327Z" fill="#F0F5F8"/>
<path d="M64.1183 45.9066C63.6687 45.9066 63.2191 45.8587 62.7839 45.7628C61.4687 45.4705 60.4356 44.747 59.8713 43.7264C59.5222 43.0939 59.4648 42.423 59.7039 41.7953C60.3209 40.1805 62.6883 39.318 62.9561 39.227C63.2574 39.1216 63.5874 39.2797 63.6926 39.5816C63.7978 39.8835 63.64 40.2141 63.3387 40.3195C62.7504 40.5255 61.1435 41.2682 60.7848 42.2122C60.6652 42.5237 60.6987 42.8255 60.8852 43.1657C61.4017 44.0953 62.3391 44.4787 63.0374 44.632C64.3287 44.9195 65.8161 44.6607 66.7343 43.9851C66.9926 43.7982 67.3513 43.851 67.5426 44.1097C67.7291 44.3685 67.6765 44.7278 67.4183 44.9195C66.5478 45.5568 65.3426 45.9018 64.123 45.9018L64.1183 45.9066Z" fill="#F0F5F8"/>
<path d="M52.8552 48.9403C52.3865 48.9403 51.9274 48.8972 51.4969 48.8013C50.3156 48.5378 49.4261 47.9245 48.9287 47.0284C48.5939 46.4247 48.5365 45.7682 48.7517 45.1357C49.3543 43.3916 51.8748 42.2847 52.1617 42.1649C52.4534 42.0403 52.793 42.1793 52.9174 42.4716C53.0417 42.7638 52.903 43.1041 52.6113 43.2286C51.9656 43.5018 50.2104 44.4457 49.8421 45.5143C49.7274 45.8401 49.7608 46.142 49.9378 46.463C50.3539 47.2201 51.1478 47.5316 51.7408 47.6657C53.3191 48.0155 55.2417 47.5076 56.1887 46.8128C56.4469 46.6259 56.8056 46.6786 56.9969 46.9374C57.1834 47.1961 57.1308 47.5555 56.8726 47.7472C55.8443 48.4995 54.2995 48.9355 52.8504 48.9355L52.8552 48.9403Z" fill="#F0F5F8"/>
<path d="M80.3265 31.2109C80.2022 31.2109 80.0778 31.1726 79.9726 31.0863C79.7191 30.8898 79.6761 30.5257 79.8722 30.2717L84.6117 24.1815C84.8078 23.9276 85.1713 23.8844 85.4248 24.0809C85.6782 24.2773 85.7213 24.6415 85.5252 24.8955L80.7856 30.9857C80.6709 31.1342 80.5035 31.2109 80.3313 31.2109H80.3265Z" fill="#F0F5F8"/>
<path d="M55.3183 32.3559C55.1605 32.3559 55.0026 32.2936 54.8878 32.1642L49.1678 25.8536C48.9526 25.6188 48.9718 25.2498 49.2061 25.0342C49.4405 24.8186 49.8087 24.8378 50.0239 25.0725L55.7439 31.3832C55.9591 31.618 55.94 31.9869 55.7057 32.2025C55.5957 32.3032 55.457 32.3511 55.3183 32.3511V32.3559Z" fill="#F0F5F8"/>
<path d="M75.7926 79.0175C82.3485 79.0175 87.663 72.2126 87.663 63.8183C87.663 55.424 82.3485 48.6191 75.7926 48.6191C69.2368 48.6191 63.9222 55.424 63.9222 63.8183C63.9222 72.2126 69.2368 79.0175 75.7926 79.0175Z" fill="#FFB14E"/>
<path d="M40.4061 79.0175C46.9619 79.0175 52.2765 72.2126 52.2765 63.8183C52.2765 55.424 46.9619 48.6191 40.4061 48.6191C33.8502 48.6191 28.5356 55.424 28.5356 63.8183C28.5356 72.2126 33.8502 79.0175 40.4061 79.0175Z" fill="#FFB14E"/>
<path d="M111.514 49.9129C108.539 45.7921 96.8408 38.2692 95.1621 37.8427C94.0191 37.5504 92.4504 37.9529 91.5656 38.2356C91.1448 38.3698 90.6856 38.3075 90.3174 38.0679C89.3991 37.4642 87.5195 36.434 85.7404 36.7358C83.6265 37.0952 79.81 39.9846 78.7387 40.8231C78.5474 40.9717 78.3274 41.0723 78.093 41.1106C76.2948 41.4221 68.3461 42.9842 67.6048 46.1036C67.0117 48.6 69.36 49.3188 73.1621 49.3236C76.7826 49.3331 80.3695 50.6556 82.8469 53.3054C85.1952 55.8163 90.3795 62.1029 90.4752 64.7527C90.7526 72.429 92.3261 88.874 100.571 94.1352C101.552 94.7629 102.489 95.4529 103.35 96.234L123.088 114.179L138.292 90.6133L130.812 85.1988C125.34 81.2361 121.299 75.6011 119.281 69.1467C117.105 62.1748 114.058 53.4348 111.514 49.9129Z" fill="#93B3EA"/>
<path d="M100.657 54.9971C100.49 54.9971 100.327 54.9252 100.213 54.7863C94.3204 47.6227 88.8013 44.3644 85.2048 42.8933C81.3213 41.3025 78.7913 41.4031 78.7674 41.4031C78.4517 41.4175 78.1791 41.1731 78.1648 40.8521C78.1504 40.5311 78.3944 40.2627 78.71 40.2436C78.82 40.2388 81.46 40.1238 85.5587 41.7865C89.2939 43.3006 95.0283 46.6596 101.102 54.0483C101.303 54.2927 101.27 54.6617 101.026 54.8629C100.916 54.954 100.787 54.9971 100.657 54.9971Z" fill="#F0F5F8"/>
<path d="M105.808 49.8366C105.655 49.8366 105.502 49.7743 105.387 49.6545C101.174 45.1647 90.1405 38.6337 90.0305 38.5666C89.7531 38.4037 89.6622 38.0491 89.8248 37.776C89.9874 37.5028 90.3413 37.407 90.6139 37.5699C91.0731 37.8383 101.906 44.2495 106.229 48.8591C106.449 49.0939 106.435 49.458 106.205 49.6785C106.095 49.7839 105.952 49.8366 105.808 49.8366Z" fill="#F0F5F8"/>
<path d="M73.1574 46.3821C70.1396 46.3821 68.92 44.3983 68.8674 44.3121C68.7048 44.039 68.7957 43.6844 69.0683 43.5167C69.3409 43.3537 69.6948 43.44 69.8574 43.7131C69.9052 43.785 70.9096 45.3567 73.4874 45.2129C74.7978 45.141 75.74 44.7433 76.29 44.0342C77.0983 42.9944 76.8305 41.5665 76.8305 41.5521C76.7683 41.2406 76.9739 40.934 77.2848 40.8717C77.5957 40.8094 77.9018 41.0106 77.9639 41.3221C77.9783 41.3987 78.3417 43.2675 77.2131 44.7337C76.4478 45.7256 75.2187 46.2767 73.5544 46.3677C73.4204 46.3773 73.2865 46.3773 73.1574 46.3773V46.3821Z" fill="#F0F5F8"/>
<path d="M123.088 114.758C122.944 114.758 122.806 114.705 122.7 114.609L102.963 96.6646C102.178 95.9555 101.298 95.2846 100.26 94.6282C96.5491 92.2611 93.7609 87.5078 91.977 80.4975C90.5231 74.7859 90.0448 68.7963 89.8965 64.7761C89.8152 62.5863 85.3913 56.8746 82.4213 53.7025C80.1687 51.2971 76.7922 49.9123 73.1574 49.9028C70.0391 49.898 68.2791 49.4188 67.4422 48.355C66.9496 47.7273 66.8109 46.9223 67.0404 45.9688C67.4039 44.4403 69.1591 43.1082 72.2583 42.0061C74.5922 41.1771 77.0457 40.7028 77.9926 40.5398C78.1361 40.5159 78.27 40.4536 78.3848 40.3673C79.8435 39.2269 83.4687 36.534 85.6496 36.165C87.6104 35.8344 89.6191 36.9125 90.6426 37.5834C90.8674 37.7319 91.14 37.7655 91.3935 37.684C92.4983 37.3294 94.0765 36.97 95.3057 37.2815C96.2717 37.5259 99.7344 39.6055 103.187 42.0157C105.708 43.7742 110.203 47.0996 111.987 49.5721C114.594 53.1802 117.698 62.1167 119.84 68.9736C121.811 75.2746 125.828 80.8713 131.156 84.7286L138.636 90.1432C138.885 90.3252 138.952 90.6702 138.784 90.9242L123.58 114.49C123.49 114.633 123.337 114.729 123.169 114.748C123.145 114.748 123.121 114.753 123.093 114.753L123.088 114.758ZM86.4148 37.2623C86.2235 37.2623 86.0322 37.2767 85.8409 37.3102C84.2722 37.5786 81.3309 39.5384 79.0974 41.2825C78.8344 41.4886 78.5235 41.6275 78.1935 41.685C73.8891 42.4373 68.6809 44.0809 68.1691 46.2419C68.0257 46.8457 68.0878 47.3057 68.3557 47.6459C68.9344 48.3838 70.5078 48.748 73.167 48.7527C77.1222 48.7623 80.8048 50.2813 83.2726 52.9167C83.3491 52.9982 90.9296 61.1967 91.0587 64.7378C91.2022 68.7005 91.6757 74.6038 93.1009 80.2148C94.8083 86.928 97.4291 91.4465 100.887 93.6555C101.977 94.3502 102.915 95.0594 103.747 95.8117L122.983 113.297L137.517 90.7661L130.482 85.6725C127.708 83.6648 125.288 81.2355 123.289 78.4515C121.29 75.6723 119.759 72.6009 118.736 69.3234C116.617 62.548 113.566 53.7409 111.05 50.2573C108.142 46.2323 96.5731 38.8005 95.0235 38.4123C94.2822 38.2255 93.0865 38.3644 91.7474 38.7957C91.1591 38.9873 90.523 38.9011 90.0065 38.5609C89.2317 38.053 87.8161 37.2719 86.4148 37.2719V37.2623Z" fill="#F0F5F8"/>
<path d="M14.9196 110.561L0.70088 82.1509C0.217837 81.1878 0.629141 80.0186 1.60479 79.573L12.2509 74.6759C13.1787 74.2495 14.2835 74.6376 14.7378 75.5528L27.7848 101.629C28.1961 102.448 27.9665 103.44 27.2396 103.996L17.7604 111.227C16.8135 111.95 15.4457 111.629 14.9148 110.566L14.9196 110.561Z" fill="#90A0B3"/>
<path d="M126.579 118.654L143.031 91.4855C143.586 90.5655 143.275 89.3676 142.338 88.8405L132.122 83.1001C131.228 82.5969 130.104 82.894 129.573 83.7709L114.47 108.712C113.996 109.493 114.144 110.504 114.823 111.112L123.69 119.085C124.575 119.881 125.962 119.675 126.579 118.659V118.654Z" fill="#90A0B3"/>
</g>
<defs>
<clipPath id="clip0_523_10656">
<rect width="143" height="92" fill="white" transform="translate(0.5 31)"/>
</clipPath>
</defs>
</svg>
